<svg width="1363" height="163" viewBox="0 0 1363 163" fill="none" xmlns="http://www.w3.org/2000/svg">
<path d="M0 15C0 6.71573 6.71573 0 15 0H37V163H15C6.71573 163 0 156.284 0 148V15Z" fill="#424242"/>
<rect width="1097" height="163" transform="translate(37)" fill="#F0F0F0"/>
<path d="M103.406 56.5352C103.406 56.2305 103.359 55.957 103.266 55.7148C103.18 55.4648 103.016 55.2383 102.773 55.0352C102.531 54.8242 102.191 54.6172 101.754 54.4141C101.316 54.2109 100.75 54 100.055 53.7812C99.2812 53.5312 98.5469 53.25 97.8516 52.9375C97.1641 52.625 96.5547 52.2617 96.0234 51.8477C95.5 51.4258 95.0859 50.9375 94.7812 50.3828C94.4844 49.8281 94.3359 49.1836 94.3359 48.4492C94.3359 47.7383 94.4922 47.0938 94.8047 46.5156C95.1172 45.9297 95.5547 45.4297 96.1172 45.0156C96.6797 44.5938 97.3438 44.2695 98.1094 44.043C98.8828 43.8164 99.7305 43.7031 100.652 43.7031C101.91 43.7031 103.008 43.9297 103.945 44.3828C104.883 44.8359 105.609 45.457 106.125 46.2461C106.648 47.0352 106.91 47.9375 106.91 48.9531H103.418C103.418 48.4531 103.312 48.0156 103.102 47.6406C102.898 47.2578 102.586 46.957 102.164 46.7383C101.75 46.5195 101.227 46.4102 100.594 46.4102C99.9844 46.4102 99.4766 46.5039 99.0703 46.6914C98.6641 46.8711 98.3594 47.1172 98.1562 47.4297C97.9531 47.7344 97.8516 48.0781 97.8516 48.4609C97.8516 48.75 97.9219 49.0117 98.0625 49.2461C98.2109 49.4805 98.4297 49.6992 98.7188 49.9023C99.0078 50.1055 99.3633 50.2969 99.7852 50.4766C100.207 50.6562 100.695 50.832 101.25 51.0039C102.18 51.2852 102.996 51.6016 103.699 51.9531C104.41 52.3047 105.004 52.6992 105.48 53.1367C105.957 53.5742 106.316 54.0703 106.559 54.625C106.801 55.1797 106.922 55.8086 106.922 56.5117C106.922 57.2539 106.777 57.918 106.488 58.5039C106.199 59.0898 105.781 59.5859 105.234 59.9922C104.688 60.3984 104.035 60.707 103.277 60.918C102.52 61.1289 101.672 61.2344 100.734 61.2344C99.8906 61.2344 99.0586 61.125 98.2383 60.9062C97.418 60.6797 96.6719 60.3398 96 59.8867C95.3359 59.4336 94.8047 58.8555 94.4062 58.1523C94.0078 57.4492 93.8086 56.6172 93.8086 55.6562H97.3359C97.3359 56.1875 97.418 56.6367 97.582 57.0039C97.7461 57.3711 97.9766 57.668 98.2734 57.8945C98.5781 58.1211 98.9375 58.2852 99.3516 58.3867C99.7734 58.4883 100.234 58.5391 100.734 58.5391C101.344 58.5391 101.844 58.4531 102.234 58.2812C102.633 58.1094 102.926 57.8711 103.113 57.5664C103.309 57.2617 103.406 56.918 103.406 56.5352ZM120.762 58.2578V61H111.68V58.2578H120.762ZM112.828 43.9375V61H109.312V43.9375H112.828ZM119.578 50.8867V53.5586H111.68V50.8867H119.578ZM120.75 43.9375V46.6914H111.68V43.9375H120.75ZM132.305 43.9375V61H128.789V43.9375H132.305ZM139.102 51.2266V53.9688H131.344V51.2266H139.102ZM139.922 43.9375V46.6914H131.344V43.9375H139.922ZM148.195 58.1406V52.4922C148.195 52.0859 148.129 51.7383 147.996 51.4492C147.863 51.1523 147.656 50.9219 147.375 50.7578C147.102 50.5938 146.746 50.5117 146.309 50.5117C145.934 50.5117 145.609 50.5781 145.336 50.7109C145.062 50.8359 144.852 51.0195 144.703 51.2617C144.555 51.4961 144.48 51.7734 144.48 52.0938H141.105C141.105 51.5547 141.23 51.043 141.48 50.5586C141.73 50.0742 142.094 49.6484 142.57 49.2812C143.047 48.9062 143.613 48.6133 144.27 48.4023C144.934 48.1914 145.676 48.0859 146.496 48.0859C147.48 48.0859 148.355 48.25 149.121 48.5781C149.887 48.9062 150.488 49.3984 150.926 50.0547C151.371 50.7109 151.594 51.5312 151.594 52.5156V57.9414C151.594 58.6367 151.637 59.207 151.723 59.6523C151.809 60.0898 151.934 60.4727 152.098 60.8008V61H148.688C148.523 60.6562 148.398 60.2266 148.312 59.7109C148.234 59.1875 148.195 58.6641 148.195 58.1406ZM148.641 53.2773L148.664 55.1875H146.777C146.332 55.1875 145.945 55.2383 145.617 55.3398C145.289 55.4414 145.02 55.5859 144.809 55.7734C144.598 55.9531 144.441 56.1641 144.34 56.4062C144.246 56.6484 144.199 56.9141 144.199 57.2031C144.199 57.4922 144.266 57.7539 144.398 57.9883C144.531 58.2148 144.723 58.3945 144.973 58.5273C145.223 58.6523 145.516 58.7148 145.852 58.7148C146.359 58.7148 146.801 58.6133 147.176 58.4102C147.551 58.207 147.84 57.957 148.043 57.6602C148.254 57.3633 148.363 57.082 148.371 56.8164L149.262 58.2461C149.137 58.5664 148.965 58.8984 148.746 59.2422C148.535 59.5859 148.266 59.9102 147.938 60.2148C147.609 60.5117 147.215 60.7578 146.754 60.9531C146.293 61.1406 145.746 61.2344 145.113 61.2344C144.309 61.2344 143.578 61.0742 142.922 60.7539C142.273 60.4258 141.758 59.9766 141.375 59.4062C141 58.8281 140.812 58.1719 140.812 57.4375C140.812 56.7734 140.938 56.1836 141.188 55.668C141.438 55.1523 141.805 54.7188 142.289 54.3672C142.781 54.0078 143.395 53.7383 144.129 53.5586C144.863 53.3711 145.715 53.2773 146.684 53.2773H148.641ZM159.434 58.5977C159.848 58.5977 160.215 58.5195 160.535 58.3633C160.855 58.1992 161.105 57.9727 161.285 57.6836C161.473 57.3867 161.57 57.0391 161.578 56.6406H164.754C164.746 57.5312 164.508 58.3242 164.039 59.0195C163.57 59.707 162.941 60.25 162.152 60.6484C161.363 61.0391 160.48 61.2344 159.504 61.2344C158.52 61.2344 157.66 61.0703 156.926 60.7422C156.199 60.4141 155.594 59.9609 155.109 59.3828C154.625 58.7969 154.262 58.1172 154.02 57.3438C153.777 56.5625 153.656 55.7266 153.656 54.8359V54.4961C153.656 53.5977 153.777 52.7617 154.02 51.9883C154.262 51.207 154.625 50.5273 155.109 49.9492C155.594 49.3633 156.199 48.9062 156.926 48.5781C157.652 48.25 158.504 48.0859 159.48 48.0859C160.52 48.0859 161.43 48.2852 162.211 48.6836C163 49.082 163.617 49.6523 164.062 50.3945C164.516 51.1289 164.746 52 164.754 53.0078H161.578C161.57 52.5859 161.48 52.2031 161.309 51.8594C161.145 51.5156 160.902 51.2422 160.582 51.0391C160.27 50.8281 159.883 50.7227 159.422 50.7227C158.93 50.7227 158.527 50.8281 158.215 51.0391C157.902 51.2422 157.66 51.5234 157.488 51.8828C157.316 52.2344 157.195 52.6367 157.125 53.0898C157.062 53.5352 157.031 54.0039 157.031 54.4961V54.8359C157.031 55.3281 157.062 55.8008 157.125 56.2539C157.188 56.707 157.305 57.1094 157.477 57.4609C157.656 57.8125 157.902 58.0898 158.215 58.293C158.527 58.4961 158.934 58.5977 159.434 58.5977ZM172.922 48.3203V50.7109H165.539V48.3203H172.922ZM167.367 45.1914H170.742V57.1797C170.742 57.5469 170.789 57.8281 170.883 58.0234C170.984 58.2188 171.133 58.3555 171.328 58.4336C171.523 58.5039 171.77 58.5391 172.066 58.5391C172.277 58.5391 172.465 58.5312 172.629 58.5156C172.801 58.4922 172.945 58.4688 173.062 58.4453L173.074 60.9297C172.785 61.0234 172.473 61.0977 172.137 61.1523C171.801 61.207 171.43 61.2344 171.023 61.2344C170.281 61.2344 169.633 61.1133 169.078 60.8711C168.531 60.6211 168.109 60.2227 167.812 59.6758C167.516 59.1289 167.367 58.4102 167.367 57.5195V45.1914ZM174 54.7891V54.543C174 53.6133 174.133 52.7578 174.398 51.9766C174.664 51.1875 175.051 50.5039 175.559 49.9258C176.066 49.3477 176.691 48.8984 177.434 48.5781C178.176 48.25 179.027 48.0859 179.988 48.0859C180.949 48.0859 181.805 48.25 182.555 48.5781C183.305 48.8984 183.934 49.3477 184.441 49.9258C184.957 50.5039 185.348 51.1875 185.613 51.9766C185.879 52.7578 186.012 53.6133 186.012 54.543V54.7891C186.012 55.7109 185.879 56.5664 185.613 57.3555C185.348 58.1367 184.957 58.8203 184.441 59.4062C183.934 59.9844 183.309 60.4336 182.566 60.7539C181.824 61.0742 180.973 61.2344 180.012 61.2344C179.051 61.2344 178.195 61.0742 177.445 60.7539C176.703 60.4336 176.074 59.9844 175.559 59.4062C175.051 58.8203 174.664 58.1367 174.398 57.3555C174.133 56.5664 174 55.7109 174 54.7891ZM177.375 54.543V54.7891C177.375 55.3203 177.422 55.8164 177.516 56.2773C177.609 56.7383 177.758 57.1445 177.961 57.4961C178.172 57.8398 178.445 58.1094 178.781 58.3047C179.117 58.5 179.527 58.5977 180.012 58.5977C180.48 58.5977 180.883 58.5 181.219 58.3047C181.555 58.1094 181.824 57.8398 182.027 57.4961C182.23 57.1445 182.379 56.7383 182.473 56.2773C182.574 55.8164 182.625 55.3203 182.625 54.7891V54.543C182.625 54.0273 182.574 53.543 182.473 53.0898C182.379 52.6289 182.227 52.2227 182.016 51.8711C181.812 51.5117 181.543 51.2305 181.207 51.0273C180.871 50.8242 180.465 50.7227 179.988 50.7227C179.512 50.7227 179.105 50.8242 178.77 51.0273C178.441 51.2305 178.172 51.5117 177.961 51.8711C177.758 52.2227 177.609 52.6289 177.516 53.0898C177.422 53.543 177.375 54.0273 177.375 54.543ZM191.461 51.0859V61H188.086V48.3203H191.262L191.461 51.0859ZM195.281 48.2383L195.223 51.3672C195.059 51.3438 194.859 51.3242 194.625 51.3086C194.398 51.2852 194.191 51.2734 194.004 51.2734C193.527 51.2734 193.113 51.3359 192.762 51.4609C192.418 51.5781 192.129 51.7539 191.895 51.9883C191.668 52.2227 191.496 52.5078 191.379 52.8438C191.27 53.1797 191.207 53.5625 191.191 53.9922L190.512 53.7812C190.512 52.9609 190.594 52.207 190.758 51.5195C190.922 50.8242 191.16 50.2188 191.473 49.7031C191.793 49.1875 192.184 48.7891 192.645 48.5078C193.105 48.2266 193.633 48.0859 194.227 48.0859C194.414 48.0859 194.605 48.1016 194.801 48.1328C194.996 48.1562 195.156 48.1914 195.281 48.2383ZM200.848 59.5703L204.211 48.3203H207.832L202.734 62.9102C202.625 63.2305 202.477 63.5742 202.289 63.9414C202.109 64.3086 201.863 64.6562 201.551 64.9844C201.246 65.3203 200.859 65.5938 200.391 65.8047C199.93 66.0156 199.363 66.1211 198.691 66.1211C198.371 66.1211 198.109 66.1016 197.906 66.0625C197.703 66.0234 197.461 65.9688 197.18 65.8984V63.4258C197.266 63.4258 197.355 63.4258 197.449 63.4258C197.543 63.4336 197.633 63.4375 197.719 63.4375C198.164 63.4375 198.527 63.3867 198.809 63.2852C199.09 63.1836 199.316 63.0273 199.488 62.8164C199.66 62.6133 199.797 62.3477 199.898 62.0195L200.848 59.5703ZM199.441 48.3203L202.195 57.5078L202.676 61.082L200.379 61.3281L195.82 48.3203H199.441ZM225.258 55.3398H228.762C228.691 56.4883 228.375 57.5078 227.812 58.3984C227.258 59.2891 226.48 59.9844 225.48 60.4844C224.488 60.9844 223.293 61.2344 221.895 61.2344C220.801 61.2344 219.82 61.0469 218.953 60.6719C218.086 60.2891 217.344 59.7422 216.727 59.0312C216.117 58.3203 215.652 57.4609 215.332 56.4531C215.012 55.4453 214.852 54.3164 214.852 53.0664V51.8828C214.852 50.6328 215.016 49.5039 215.344 48.4961C215.68 47.4805 216.156 46.6172 216.773 45.9062C217.398 45.1953 218.145 44.6484 219.012 44.2656C219.879 43.8828 220.848 43.6914 221.918 43.6914C223.34 43.6914 224.539 43.9492 225.516 44.4648C226.5 44.9805 227.262 45.6914 227.801 46.5977C228.348 47.5039 228.676 48.5352 228.785 49.6914H225.27C225.23 49.0039 225.094 48.4219 224.859 47.9453C224.625 47.4609 224.27 47.0977 223.793 46.8555C223.324 46.6055 222.699 46.4805 221.918 46.4805C221.332 46.4805 220.82 46.5898 220.383 46.8086C219.945 47.0273 219.578 47.3594 219.281 47.8047C218.984 48.25 218.762 48.8125 218.613 49.4922C218.473 50.1641 218.402 50.9531 218.402 51.8594V53.0664C218.402 53.9492 218.469 54.7266 218.602 55.3984C218.734 56.0625 218.938 56.625 219.211 57.0859C219.492 57.5391 219.852 57.8828 220.289 58.1172C220.734 58.3438 221.27 58.457 221.895 58.457C222.629 58.457 223.234 58.3398 223.711 58.1055C224.188 57.8711 224.551 57.5234 224.801 57.0625C225.059 56.6016 225.211 56.0273 225.258 55.3398ZM234.422 43V61H231.035V43H234.422ZM236.672 54.7891V54.543C236.672 53.6133 236.805 52.7578 237.07 51.9766C237.336 51.1875 237.723 50.5039 238.23 49.9258C238.738 49.3477 239.363 48.8984 240.105 48.5781C240.848 48.25 241.699 48.0859 242.66 48.0859C243.621 48.0859 244.477 48.25 245.227 48.5781C245.977 48.8984 246.605 49.3477 247.113 49.9258C247.629 50.5039 248.02 51.1875 248.285 51.9766C248.551 52.7578 248.684 53.6133 248.684 54.543V54.7891C248.684 55.7109 248.551 56.5664 248.285 57.3555C248.02 58.1367 247.629 58.8203 247.113 59.4062C246.605 59.9844 245.98 60.4336 245.238 60.7539C244.496 61.0742 243.645 61.2344 242.684 61.2344C241.723 61.2344 240.867 61.0742 240.117 60.7539C239.375 60.4336 238.746 59.9844 238.23 59.4062C237.723 58.8203 237.336 58.1367 237.07 57.3555C236.805 56.5664 236.672 55.7109 236.672 54.7891ZM240.047 54.543V54.7891C240.047 55.3203 240.094 55.8164 240.188 56.2773C240.281 56.7383 240.43 57.1445 240.633 57.4961C240.844 57.8398 241.117 58.1094 241.453 58.3047C241.789 58.5 242.199 58.5977 242.684 58.5977C243.152 58.5977 243.555 58.5 243.891 58.3047C244.227 58.1094 244.496 57.8398 244.699 57.4961C244.902 57.1445 245.051 56.7383 245.145 56.2773C245.246 55.8164 245.297 55.3203 245.297 54.7891V54.543C245.297 54.0273 245.246 53.543 245.145 53.0898C245.051 52.6289 244.898 52.2227 244.688 51.8711C244.484 51.5117 244.215 51.2305 243.879 51.0273C243.543 50.8242 243.137 50.7227 242.66 50.7227C242.184 50.7227 241.777 50.8242 241.441 51.0273C241.113 51.2305 240.844 51.5117 240.633 51.8711C240.43 52.2227 240.281 52.6289 240.188 53.0898C240.094 53.543 240.047 54.0273 240.047 54.543ZM254.062 51.0273V61H250.688V48.3203H253.852L254.062 51.0273ZM253.57 54.2148H252.656C252.656 53.2773 252.777 52.4336 253.02 51.6836C253.262 50.9258 253.602 50.2812 254.039 49.75C254.477 49.2109 254.996 48.8008 255.598 48.5195C256.207 48.2305 256.887 48.0859 257.637 48.0859C258.23 48.0859 258.773 48.1719 259.266 48.3438C259.758 48.5156 260.18 48.7891 260.531 49.1641C260.891 49.5391 261.164 50.0352 261.352 50.6523C261.547 51.2695 261.645 52.0234 261.645 52.9141V61H258.246V52.9023C258.246 52.3398 258.168 51.9023 258.012 51.5898C257.855 51.2773 257.625 51.0586 257.32 50.9336C257.023 50.8008 256.656 50.7344 256.219 50.7344C255.766 50.7344 255.371 50.8242 255.035 51.0039C254.707 51.1836 254.434 51.4336 254.215 51.7539C254.004 52.0664 253.844 52.4336 253.734 52.8555C253.625 53.2773 253.57 53.7305 253.57 54.2148ZM270.047 61.2344C269.062 61.2344 268.18 61.0781 267.398 60.7656C266.617 60.4453 265.953 60.0039 265.406 59.4414C264.867 58.8789 264.453 58.2266 264.164 57.4844C263.875 56.7344 263.73 55.9375 263.73 55.0938V54.625C263.73 53.6641 263.867 52.7852 264.141 51.9883C264.414 51.1914 264.805 50.5 265.312 49.9141C265.828 49.3281 266.453 48.8789 267.188 48.5664C267.922 48.2461 268.75 48.0859 269.672 48.0859C270.57 48.0859 271.367 48.2344 272.062 48.5312C272.758 48.8281 273.34 49.25 273.809 49.7969C274.285 50.3438 274.645 51 274.887 51.7656C275.129 52.5234 275.25 53.3672 275.25 54.2969V55.7031H265.172V53.4531H271.934V53.1953C271.934 52.7266 271.848 52.3086 271.676 51.9414C271.512 51.5664 271.262 51.2695 270.926 51.0508C270.59 50.832 270.16 50.7227 269.637 50.7227C269.191 50.7227 268.809 50.8203 268.488 51.0156C268.168 51.2109 267.906 51.4844 267.703 51.8359C267.508 52.1875 267.359 52.6016 267.258 53.0781C267.164 53.5469 267.117 54.0625 267.117 54.625V55.0938C267.117 55.6016 267.188 56.0703 267.328 56.5C267.477 56.9297 267.684 57.3008 267.949 57.6133C268.223 57.9258 268.551 58.168 268.934 58.3398C269.324 58.5117 269.766 58.5977 270.258 58.5977C270.867 58.5977 271.434 58.4805 271.957 58.2461C272.488 58.0039 272.945 57.6406 273.328 57.1562L274.969 58.9375C274.703 59.3203 274.34 59.6875 273.879 60.0391C273.426 60.3906 272.879 60.6797 272.238 60.9062C271.598 61.125 270.867 61.2344 270.047 61.2344Z" fill="#888888"/>
<path d="M113.18 109.93C113.18 109.398 113.102 108.922 112.945 108.5C112.789 108.062 112.5 107.656 112.078 107.281C111.656 106.906 111.047 106.531 110.25 106.156C109.469 105.766 108.438 105.359 107.156 104.938C105.656 104.438 104.211 103.875 102.82 103.25C101.43 102.609 100.188 101.867 99.0938 101.023C98 100.164 97.1328 99.1641 96.4922 98.0234C95.8516 96.8672 95.5312 95.5234 95.5312 93.9922C95.5312 92.5234 95.8594 91.2031 96.5156 90.0312C97.1719 88.8438 98.0859 87.8359 99.2578 87.0078C100.445 86.1641 101.836 85.5234 103.43 85.0859C105.023 84.6328 106.766 84.4062 108.656 84.4062C111.156 84.4062 113.359 84.8438 115.266 85.7188C117.188 86.5781 118.688 87.8047 119.766 89.3984C120.859 90.9766 121.406 92.8438 121.406 95H113.227C113.227 94.1406 113.047 93.3828 112.688 92.7266C112.344 92.0703 111.82 91.5547 111.117 91.1797C110.414 90.8047 109.531 90.6172 108.469 90.6172C107.438 90.6172 106.57 90.7734 105.867 91.0859C105.164 91.3984 104.633 91.8203 104.273 92.3516C103.914 92.8672 103.734 93.4375 103.734 94.0625C103.734 94.5781 103.875 95.0469 104.156 95.4688C104.453 95.875 104.867 96.2578 105.398 96.6172C105.945 96.9766 106.602 97.3203 107.367 97.6484C108.148 97.9766 109.023 98.2969 109.992 98.6094C111.805 99.1875 113.414 99.8359 114.82 100.555C116.242 101.258 117.438 102.062 118.406 102.969C119.391 103.859 120.133 104.875 120.633 106.016C121.148 107.156 121.406 108.445 121.406 109.883C121.406 111.414 121.109 112.773 120.516 113.961C119.922 115.148 119.07 116.156 117.961 116.984C116.852 117.797 115.523 118.414 113.977 118.836C112.43 119.258 110.703 119.469 108.797 119.469C107.047 119.469 105.32 119.25 103.617 118.812C101.93 118.359 100.398 117.672 99.0234 116.75C97.6484 115.812 96.5469 114.617 95.7188 113.164C94.9062 111.695 94.5 109.953 94.5 107.938H102.75C102.75 108.938 102.883 109.781 103.148 110.469C103.414 111.156 103.805 111.711 104.32 112.133C104.836 112.539 105.469 112.836 106.219 113.023C106.969 113.195 107.828 113.281 108.797 113.281C109.844 113.281 110.688 113.133 111.328 112.836C111.969 112.523 112.438 112.117 112.734 111.617C113.031 111.102 113.18 110.539 113.18 109.93ZM133.031 99.0547V119H125.133V93.6406H132.539L133.031 99.0547ZM132.094 105.453L130.242 105.5C130.242 103.562 130.477 101.836 130.945 100.32C131.414 98.7891 132.078 97.4922 132.938 96.4297C133.797 95.3672 134.82 94.5625 136.008 94.0156C137.211 93.4531 138.547 93.1719 140.016 93.1719C141.188 93.1719 142.258 93.3438 143.227 93.6875C144.211 94.0312 145.055 94.5859 145.758 95.3516C146.477 96.1172 147.023 97.1328 147.398 98.3984C147.789 99.6484 147.984 101.195 147.984 103.039V119H140.039V103.016C140.039 102 139.898 101.227 139.617 100.695C139.336 100.148 138.93 99.7734 138.398 99.5703C137.867 99.3672 137.219 99.2656 136.453 99.2656C135.641 99.2656 134.953 99.4219 134.391 99.7344C133.828 100.047 133.375 100.484 133.031 101.047C132.703 101.594 132.461 102.242 132.305 102.992C132.164 103.742 132.094 104.562 132.094 105.453ZM165.539 112.625V102.172C165.539 101.453 165.438 100.836 165.234 100.32C165.031 99.8047 164.711 99.4062 164.273 99.125C163.836 98.8281 163.25 98.6797 162.516 98.6797C161.922 98.6797 161.414 98.7812 160.992 98.9844C160.57 99.1875 160.25 99.4922 160.031 99.8984C159.812 100.305 159.703 100.82 159.703 101.445H151.805C151.805 100.273 152.062 99.1875 152.578 98.1875C153.109 97.1719 153.859 96.2891 154.828 95.5391C155.812 94.7891 156.984 94.2109 158.344 93.8047C159.719 93.3828 161.25 93.1719 162.938 93.1719C164.953 93.1719 166.75 93.5078 168.328 94.1797C169.922 94.8516 171.18 95.8594 172.102 97.2031C173.023 98.5312 173.484 100.203 173.484 102.219V112.602C173.484 114.258 173.578 115.516 173.766 116.375C173.953 117.219 174.219 117.961 174.562 118.602V119H166.641C166.266 118.219 165.984 117.266 165.797 116.141C165.625 115 165.539 113.828 165.539 112.625ZM166.5 103.508L166.547 107.727H163.055C162.32 107.727 161.695 107.828 161.18 108.031C160.68 108.234 160.273 108.516 159.961 108.875C159.664 109.219 159.445 109.609 159.305 110.047C159.18 110.484 159.117 110.945 159.117 111.43C159.117 111.898 159.227 112.32 159.445 112.695C159.68 113.055 159.992 113.336 160.383 113.539C160.773 113.742 161.211 113.844 161.695 113.844C162.57 113.844 163.312 113.68 163.922 113.352C164.547 113.008 165.023 112.594 165.352 112.109C165.68 111.625 165.844 111.172 165.844 110.75L167.578 113.984C167.266 114.609 166.906 115.242 166.5 115.883C166.109 116.523 165.617 117.117 165.023 117.664C164.445 118.195 163.734 118.633 162.891 118.977C162.047 119.305 161.023 119.469 159.82 119.469C158.258 119.469 156.82 119.148 155.508 118.508C154.211 117.867 153.172 116.977 152.391 115.836C151.609 114.68 151.219 113.352 151.219 111.852C151.219 110.539 151.453 109.367 151.922 108.336C152.406 107.305 153.133 106.43 154.102 105.711C155.07 104.992 156.305 104.445 157.805 104.07C159.305 103.695 161.07 103.508 163.102 103.508H166.5ZM185.836 98.5156V128.75H177.938V93.6406H185.297L185.836 98.5156ZM201.398 106.016V106.508C201.398 108.352 201.188 110.062 200.766 111.641C200.344 113.219 199.719 114.594 198.891 115.766C198.062 116.938 197.031 117.852 195.797 118.508C194.578 119.148 193.164 119.469 191.555 119.469C190.039 119.469 188.734 119.133 187.641 118.461C186.547 117.789 185.633 116.859 184.898 115.672C184.164 114.484 183.57 113.125 183.117 111.594C182.664 110.062 182.305 108.445 182.039 106.742V106.109C182.305 104.281 182.664 102.586 183.117 101.023C183.57 99.4453 184.164 98.0703 184.898 96.8984C185.633 95.7266 186.539 94.8125 187.617 94.1562C188.711 93.5 190.016 93.1719 191.531 93.1719C193.141 93.1719 194.555 93.4766 195.773 94.0859C197.008 94.6953 198.039 95.5703 198.867 96.7109C199.711 97.8359 200.344 99.1875 200.766 100.766C201.188 102.344 201.398 104.094 201.398 106.016ZM193.5 106.508V106.016C193.5 105.031 193.43 104.133 193.289 103.32C193.148 102.492 192.922 101.773 192.609 101.164C192.312 100.555 191.914 100.086 191.414 99.7578C190.914 99.4297 190.297 99.2656 189.562 99.2656C188.719 99.2656 188.008 99.3984 187.43 99.6641C186.867 99.9141 186.414 100.305 186.07 100.836C185.742 101.352 185.508 102 185.367 102.781C185.242 103.547 185.188 104.445 185.203 105.477V107.398C185.172 108.586 185.289 109.633 185.555 110.539C185.82 111.43 186.281 112.125 186.938 112.625C187.594 113.125 188.484 113.375 189.609 113.375C190.359 113.375 190.984 113.203 191.484 112.859C191.984 112.5 192.383 112.008 192.68 111.383C192.977 110.742 193.188 110.008 193.312 109.18C193.438 108.352 193.5 107.461 193.5 106.508ZM218.203 111.875C218.203 111.438 218.055 111.062 217.758 110.75C217.477 110.422 216.977 110.125 216.258 109.859C215.539 109.578 214.531 109.297 213.234 109.016C212 108.75 210.836 108.398 209.742 107.961C208.664 107.523 207.719 106.992 206.906 106.367C206.094 105.742 205.453 105 204.984 104.141C204.531 103.281 204.305 102.297 204.305 101.188C204.305 100.109 204.531 99.0938 204.984 98.1406C205.453 97.1719 206.133 96.3203 207.023 95.5859C207.93 94.8359 209.031 94.25 210.328 93.8281C211.625 93.3906 213.102 93.1719 214.758 93.1719C217.039 93.1719 219.008 93.5234 220.664 94.2266C222.32 94.9141 223.594 95.8828 224.484 97.1328C225.391 98.3672 225.844 99.7969 225.844 101.422H217.945C217.945 100.781 217.836 100.234 217.617 99.7812C217.414 99.3281 217.078 98.9844 216.609 98.75C216.141 98.5 215.516 98.375 214.734 98.375C214.188 98.375 213.688 98.4766 213.234 98.6797C212.797 98.8828 212.445 99.1641 212.18 99.5234C211.914 99.8828 211.781 100.305 211.781 100.789C211.781 101.133 211.859 101.445 212.016 101.727C212.188 101.992 212.445 102.242 212.789 102.477C213.133 102.695 213.57 102.898 214.102 103.086C214.633 103.258 215.273 103.414 216.023 103.555C217.727 103.867 219.32 104.312 220.805 104.891C222.289 105.469 223.492 106.289 224.414 107.352C225.352 108.414 225.82 109.844 225.82 111.641C225.82 112.766 225.562 113.805 225.047 114.758C224.531 115.695 223.789 116.523 222.82 117.242C221.852 117.945 220.688 118.492 219.328 118.883C217.969 119.273 216.438 119.469 214.734 119.469C212.312 119.469 210.266 119.039 208.594 118.18C206.922 117.305 205.656 116.211 204.797 114.898C203.953 113.57 203.531 112.227 203.531 110.867H210.891C210.922 111.648 211.109 112.289 211.453 112.789C211.812 113.289 212.289 113.656 212.883 113.891C213.477 114.125 214.164 114.242 214.945 114.242C215.664 114.242 216.258 114.141 216.727 113.938C217.211 113.734 217.578 113.461 217.828 113.117C218.078 112.758 218.203 112.344 218.203 111.875ZM237.258 83V119H229.359V83H237.258ZM236.32 105.453L234.469 105.5C234.469 103.719 234.688 102.078 235.125 100.578C235.562 99.0781 236.188 97.7734 237 96.6641C237.812 95.5547 238.789 94.6953 239.93 94.0859C241.07 93.4766 242.336 93.1719 243.727 93.1719C244.977 93.1719 246.117 93.3516 247.148 93.7109C248.195 94.0703 249.094 94.6484 249.844 95.4453C250.609 96.2422 251.195 97.2812 251.602 98.5625C252.023 99.8438 252.234 101.406 252.234 103.25V119H244.289V103.203C244.289 102.172 244.141 101.375 243.844 100.812C243.562 100.234 243.156 99.8359 242.625 99.6172C242.094 99.3828 241.445 99.2656 240.68 99.2656C239.758 99.2656 239.008 99.4219 238.43 99.7344C237.852 100.047 237.406 100.484 237.094 101.047C236.797 101.594 236.594 102.242 236.484 102.992C236.375 103.742 236.32 104.562 236.32 105.453ZM255.633 106.578V106.086C255.633 104.227 255.898 102.516 256.43 100.953C256.961 99.375 257.742 98.0078 258.773 96.8516C259.805 95.6953 261.078 94.7969 262.594 94.1562C264.109 93.5 265.859 93.1719 267.844 93.1719C269.844 93.1719 271.602 93.5 273.117 94.1562C274.648 94.7969 275.93 95.6953 276.961 96.8516C277.992 98.0078 278.773 99.375 279.305 100.953C279.836 102.516 280.102 104.227 280.102 106.086V106.578C280.102 108.422 279.836 110.133 279.305 111.711C278.773 113.273 277.992 114.641 276.961 115.812C275.93 116.969 274.656 117.867 273.141 118.508C271.625 119.148 269.875 119.469 267.891 119.469C265.906 119.469 264.148 119.148 262.617 118.508C261.086 117.867 259.805 116.969 258.773 115.812C257.742 114.641 256.961 113.273 256.43 111.711C255.898 110.133 255.633 108.422 255.633 106.578ZM263.531 106.086V106.578C263.531 107.531 263.602 108.422 263.742 109.25C263.883 110.078 264.117 110.805 264.445 111.43C264.773 112.039 265.219 112.516 265.781 112.859C266.344 113.203 267.047 113.375 267.891 113.375C268.719 113.375 269.406 113.203 269.953 112.859C270.516 112.516 270.961 112.039 271.289 111.43C271.617 110.805 271.852 110.078 271.992 109.25C272.133 108.422 272.203 107.531 272.203 106.578V106.086C272.203 105.164 272.133 104.297 271.992 103.484C271.852 102.656 271.617 101.93 271.289 101.305C270.961 100.664 270.516 100.164 269.953 99.8047C269.391 99.4453 268.688 99.2656 267.844 99.2656C267.016 99.2656 266.32 99.4453 265.758 99.8047C265.211 100.164 264.773 100.664 264.445 101.305C264.117 101.93 263.883 102.656 263.742 103.484C263.602 104.297 263.531 105.164 263.531 106.086ZM296.977 93.6406V99.125H281.695V93.6406H296.977ZM284.906 87.3359H292.805V110.727C292.805 111.398 292.883 111.922 293.039 112.297C293.195 112.656 293.461 112.914 293.836 113.07C294.227 113.211 294.742 113.281 295.383 113.281C295.836 113.281 296.211 113.273 296.508 113.258C296.805 113.227 297.086 113.188 297.352 113.141V118.789C296.68 119.008 295.977 119.172 295.242 119.281C294.508 119.406 293.727 119.469 292.898 119.469C291.211 119.469 289.766 119.203 288.562 118.672C287.375 118.141 286.469 117.305 285.844 116.164C285.219 115.023 284.906 113.539 284.906 111.711V87.3359ZM313.406 111.875C313.406 111.438 313.258 111.062 312.961 110.75C312.68 110.422 312.18 110.125 311.461 109.859C310.742 109.578 309.734 109.297 308.438 109.016C307.203 108.75 306.039 108.398 304.945 107.961C303.867 107.523 302.922 106.992 302.109 106.367C301.297 105.742 300.656 105 300.188 104.141C299.734 103.281 299.508 102.297 299.508 101.188C299.508 100.109 299.734 99.0938 300.188 98.1406C300.656 97.1719 301.336 96.3203 302.227 95.5859C303.133 94.8359 304.234 94.25 305.531 93.8281C306.828 93.3906 308.305 93.1719 309.961 93.1719C312.242 93.1719 314.211 93.5234 315.867 94.2266C317.523 94.9141 318.797 95.8828 319.688 97.1328C320.594 98.3672 321.047 99.7969 321.047 101.422H313.148C313.148 100.781 313.039 100.234 312.82 99.7812C312.617 99.3281 312.281 98.9844 311.812 98.75C311.344 98.5 310.719 98.375 309.938 98.375C309.391 98.375 308.891 98.4766 308.438 98.6797C308 98.8828 307.648 99.1641 307.383 99.5234C307.117 99.8828 306.984 100.305 306.984 100.789C306.984 101.133 307.062 101.445 307.219 101.727C307.391 101.992 307.648 102.242 307.992 102.477C308.336 102.695 308.773 102.898 309.305 103.086C309.836 103.258 310.477 103.414 311.227 103.555C312.93 103.867 314.523 104.312 316.008 104.891C317.492 105.469 318.695 106.289 319.617 107.352C320.555 108.414 321.023 109.844 321.023 111.641C321.023 112.766 320.766 113.805 320.25 114.758C319.734 115.695 318.992 116.523 318.023 117.242C317.055 117.945 315.891 118.492 314.531 118.883C313.172 119.273 311.641 119.469 309.938 119.469C307.516 119.469 305.469 119.039 303.797 118.18C302.125 117.305 300.859 116.211 300 114.898C299.156 113.57 298.734 112.227 298.734 110.867H306.094C306.125 111.648 306.312 112.289 306.656 112.789C307.016 113.289 307.492 113.656 308.086 113.891C308.68 114.125 309.367 114.242 310.148 114.242C310.867 114.242 311.461 114.141 311.93 113.938C312.414 113.734 312.781 113.461 313.031 113.117C313.281 112.758 313.406 112.344 313.406 111.875Z" fill="black"/>
<path d="M1134 0H1348C1356.28 0 1363 6.71573 1363 15V148C1363 156.284 1356.28 163 1348 163H1134V0Z" fill="#28EEA7"/>
<path fill-rule="evenodd" clip-rule="evenodd" d="M1202.75 46.5018C1202.75 45.3973 1203.65 44.5018 1204.75 44.5018H1292.25C1293.35 44.5018 1294.25 45.3973 1294.25 46.5018V116.498C1294.25 117.603 1293.35 118.498 1292.25 118.498H1204.75C1203.65 118.498 1202.75 117.603 1202.75 116.498V46.5018ZM1206.75 48.5018V52.9963H1290.25V48.5018H1206.75ZM1290.25 56.9963H1235.19V114.498H1290.25V56.9963ZM1231.19 114.498V56.9963H1206.75V114.498H1231.19Z" fill="white"/>
<path fill-rule="evenodd" clip-rule="evenodd" d="M1209.72 62.3022C1209.72 61.1976 1210.62 60.3022 1211.72 60.3022H1225.72C1226.83 60.3022 1227.72 61.1976 1227.72 62.3022V81.6974C1227.72 82.802 1226.83 83.6974 1225.72 83.6974H1211.72C1210.62 83.6974 1209.72 82.802 1209.72 81.6974V62.3022ZM1213.72 64.3022V79.6974H1223.72V64.3022H1213.72ZM1239.33 63.1982C1239.33 62.0936 1240.22 61.1982 1241.33 61.1982H1284.25C1285.36 61.1982 1286.25 62.0936 1286.25 63.1982V109.407C1286.25 110.511 1285.36 111.407 1284.25 111.407H1241.33C1240.22 111.407 1239.33 110.511 1239.33 109.407V63.1982ZM1243.33 65.1982V107.407H1282.25V65.1982H1243.33ZM1209.56 93.4381C1209.56 92.3336 1210.46 91.4381 1211.56 91.4381H1220.48C1221.59 91.4381 1222.48 92.3336 1222.48 93.4381C1222.48 94.5427 1221.59 95.4381 1220.48 95.4381H1211.56C1210.46 95.4381 1209.56 94.5427 1209.56 93.4381ZM1209.56 100.438C1209.56 99.3335 1210.46 98.4381 1211.56 98.4381H1226.1C1227.21 98.4381 1228.1 99.3335 1228.1 100.438C1228.1 101.543 1227.21 102.438 1226.1 102.438H1211.56C1210.46 102.438 1209.56 101.543 1209.56 100.438ZM1209.56 107.438C1209.56 106.334 1210.46 105.438 1211.56 105.438H1220.48C1221.59 105.438 1222.48 106.334 1222.48 107.438C1222.48 108.543 1221.59 109.438 1220.48 109.438H1211.56C1210.46 109.438 1209.56 108.543 1209.56 107.438Z" fill="white"/>
</svg>
